<svg xmlns="http://www.w3.org/2000/svg" width="1600" height="960" viewBox="0 0 1600 960" role="img" aria-labelledby="title desc">
  <title id="title">Solution architecture Mentor Bahasa Inggris Virtual</title>
  <desc id="desc">Peserta memakai bot Telegram. Handler meneruskan pesan ke LeadAgent, yang mengelola riwayat melalui ChatRepository dan memilih layanan. Layanan latihan, evaluasi, tips, audio, dan laporan memakai Google Gemini. Supabase menyimpan pengguna dan percakapan. File WAV dan PDF dibuat lokal lalu dikirim melalui Telegram. JobQueue mengirim pengingat pukul 08.00 WIB.</desc>
  <defs>
    <marker id="arrow" markerWidth="12" markerHeight="12" refX="10" refY="6" orient="auto" markerUnits="userSpaceOnUse">
      <path d="M 1 1 L 10 6 L 1 11 Z" fill="#3559a4"/>
    </marker>
    <marker id="arrow-green" markerWidth="12" markerHeight="12" refX="10" refY="6" orient="auto" markerUnits="userSpaceOnUse">
      <path d="M 1 1 L 10 6 L 1 11 Z" fill="#168270"/>
    </marker>
    <linearGradient id="gemini-gradient" x1="0" y1="1" x2="1" y2="0">
      <stop offset="0" stop-color="#4E8CFF"/>
      <stop offset=".52" stop-color="#8E75B2"/>
      <stop offset="1" stop-color="#D965A7"/>
    </linearGradient>
    <symbol id="i-user" viewBox="0 0 24 24"><circle cx="12" cy="7" r="4"/><path d="M4 21c.7-5 3.4-7.5 8-7.5S19.3 16 20 21"/></symbol>
    <!-- Brand paths: Simple Icons (CC0). -->
    <symbol id="i-send" viewBox="0 0 24 24"><path class="brand-path" d="M11.944 0A12 12 0 0 0 0 12a12 12 0 0 0 12 12 12 12 0 0 0 12-12A12 12 0 0 0 12 0a12 12 0 0 0-.056 0zm4.962 7.224c.1-.002.321.023.465.14a.506.506 0 0 1 .171.325c.016.093.036.306.02.472-.18 1.898-.962 6.502-1.36 8.627-.168.9-.499 1.201-.82 1.23-.696.065-1.225-.46-1.9-.902-1.056-.693-1.653-1.124-2.678-1.8-1.185-.78-.417-1.21.258-1.91.177-.184 3.247-2.977 3.307-3.23.007-.032.014-.15-.056-.212s-.174-.041-.249-.024c-.106.024-1.793 1.14-5.061 3.345-.48.33-.913.49-1.302.48-.428-.008-1.252-.241-1.865-.44-.752-.245-1.349-.374-1.297-.789.027-.216.325-.437.893-.663 3.498-1.524 5.83-2.529 6.998-3.014 3.332-1.386 4.025-1.627 4.476-1.635z"/></symbol>
    <symbol id="i-handler" viewBox="0 0 24 24"><rect x="3" y="3" width="7" height="7" rx="1"/><rect x="14" y="14" width="7" height="7" rx="1"/><path d="M10 6.5h5a3 3 0 0 1 3 3V14M14 17.5H9a3 3 0 0 1-3-3V10"/></symbol>
    <symbol id="i-clock" viewBox="0 0 24 24"><circle cx="12" cy="12" r="9"/><path d="M12 7v5l3.5 2"/></symbol>
    <symbol id="i-orbit" viewBox="0 0 24 24"><circle cx="12" cy="12" r="3"/><ellipse cx="12" cy="12" rx="10" ry="4.5" transform="rotate(35 12 12)"/><ellipse cx="12" cy="12" rx="10" ry="4.5" transform="rotate(-35 12 12)"/></symbol>
    <symbol id="i-book" viewBox="0 0 24 24"><path d="M3 5.5c3.5-1 6.5-.4 9 1.6v13c-2.5-2-5.5-2.6-9-1.6v-13Z"/><path d="M21 5.5c-3.5-1-6.5-.4-9 1.6v13c2.5-2 5.5-2.6 9-1.6v-13Z"/></symbol>
    <symbol id="i-check" viewBox="0 0 24 24"><path d="M12 2.5 20 6v6c0 5-3.2 8-8 9.5C7.2 20 4 17 4 12V6l8-3.5Z"/><path d="m8 12 2.5 2.5L16 9"/></symbol>
    <symbol id="i-bulb" viewBox="0 0 24 24"><path d="M8.5 16.5c-1.8-1.2-3-3.2-3-5.5a6.5 6.5 0 1 1 13 0c0 2.3-1.2 4.3-3 5.5L15 19H9l-.5-2.5Z"/><path d="M9.5 22h5M12 2V0m8 4-1.5 1.5M4 4l1.5 1.5"/></symbol>
    <symbol id="i-wave" viewBox="0 0 24 24"><path d="M3 14v-4m4 8V6m4 15V3m4 15V6m4 8v-4"/></symbol>
    <symbol id="i-doc" viewBox="0 0 24 24"><path d="M6 2.5h8l4 4V21H6V2.5Z"/><path d="M14 2.5v5h4M9 12h6m-6 4h6"/></symbol>
    <symbol id="i-spark" viewBox="0 0 24 24"><path class="brand-gemini-path" d="M11.04 19.32Q12 21.51 12 24q0-2.49.93-4.68.96-2.19 2.58-3.81t3.81-2.55Q21.51 12 24 12q-2.49 0-4.68-.93a12.3 12.3 0 0 1-3.81-2.58 12.3 12.3 0 0 1-2.58-3.81Q12 2.49 12 0q0 2.49-.96 4.68-.93 2.19-2.55 3.81a12.3 12.3 0 0 1-3.81 2.58Q2.49 12 0 12q2.49 0 4.68.96 2.19.93 3.81 2.55t2.55 3.81"/></symbol>
    <symbol id="i-sliders" viewBox="0 0 24 24"><path d="M4 6h5m4 0h7M4 12h10m4 0h2M4 18h2m4 0h10"/><circle cx="11" cy="6" r="2"/><circle cx="16" cy="12" r="2"/><circle cx="8" cy="18" r="2"/></symbol>
    <symbol id="i-database" viewBox="0 0 24 24"><path class="brand-path" d="M11.9 1.036c-.015-.986-1.26-1.41-1.874-.637L.764 12.05C-.33 13.427.65 15.455 2.409 15.455h9.579l.113 7.51c.014.985 1.259 1.408 1.873.636l9.262-11.653c1.093-1.375.113-3.403-1.645-3.403h-9.642z"/></symbol>
    <symbol id="i-folder" viewBox="0 0 24 24"><path d="M2.5 6.5h7l2-2h10v15h-19v-13Z"/></symbol>
    <symbol id="i-output" viewBox="0 0 24 24"><rect x="3" y="4" width="13" height="16" rx="2"/><path d="M10 12h11m-4-4 4 4-4 4"/></symbol>
    <symbol id="i-python" viewBox="0 0 24 24"><path class="brand-path" d="M14.25.18l.9.2.73.26.59.3.45.32.34.34.25.34.16.33.1.3.04.26.02.2-.01.13V8.5l-.05.63-.13.55-.21.46-.26.38-.3.31-.33.25-.35.19-.35.14-.33.1-.3.07-.26.04-.21.02H8.77l-.69.05-.59.14-.5.22-.41.27-.33.32-.27.35-.2.36-.15.37-.1.35-.07.32-.04.27-.02.21v3.06H3.17l-.21-.03-.28-.07-.32-.12-.35-.18-.36-.26-.36-.36-.35-.46-.32-.59-.28-.73-.21-.88-.14-1.05-.05-1.23.06-1.22.16-1.04.24-.87.32-.71.36-.57.4-.44.42-.33.42-.24.4-.16.36-.1.32-.05.24-.01h.16l.06.01h8.16v-.83H6.18l-.01-2.75-.02-.37.05-.34.11-.31.17-.28.25-.26.31-.23.38-.2.44-.18.51-.15.58-.12.64-.1.71-.06.77-.04.84-.02 1.27.05zm-6.3 1.98l-.23.33-.08.41.08.41.23.34.33.22.41.09.41-.09.33-.22.23-.34.08-.41-.08-.41-.23-.33-.33-.22-.41-.09-.41.09zm13.09 3.95l.28.06.32.12.35.18.36.27.36.35.35.47.32.59.28.73.21.88.14 1.04.05 1.23-.06 1.23-.16 1.04-.24.86-.32.71-.36.57-.4.45-.42.33-.42.24-.4.16-.36.09-.32.05-.24.02-.16-.01h-8.22v.82h5.84l.01 2.76.02.36-.05.34-.11.31-.17.29-.25.25-.31.24-.38.2-.44.17-.51.15-.58.13-.64.09-.71.07-.77.04-.84.01-1.27-.04-1.07-.14-.9-.2-.73-.25-.59-.3-.45-.33-.34-.34-.25-.34-.16-.33-.1-.3-.04-.25-.02-.2.01-.13v-5.34l.05-.64.13-.54.21-.46.26-.38.3-.32.33-.24.35-.2.35-.14.33-.1.3-.06.26-.04.21-.02.13-.01h5.84l.69-.05.59-.14.5-.21.41-.28.33-.32.27-.35.2-.36.15-.36.1-.35.07-.32.04-.28.02-.21V6.07h2.09l.14.01zm-6.47 14.25l-.23.33-.08.41.08.41.23.33.33.23.41.08.41-.08.33-.23.23-.33.08-.41-.08-.41-.23-.33-.33-.23-.41-.08-.41.08z"/></symbol>
    <symbol id="i-pydantic" viewBox="0 0 24 24"><path class="brand-path" d="m23.826 17.316-4.23-5.866-6.847-9.496c-.348-.48-1.151-.48-1.497 0l-6.845 9.494-4.233 5.868a.925.925 0 0 0 .46 1.417l11.078 3.626h.002a.92.92 0 0 0 .572 0h.002l11.077-3.626c.28-.092.5-.31.59-.592a.916.916 0 0 0-.13-.825h.002ZM12.001 4.07l4.44 6.158-4.152-1.36c-.032-.01-.066-.008-.098-.016a.8.8 0 0 0-.096-.016c-.032-.004-.062-.016-.094-.016s-.062.012-.094.016a.74.74 0 0 0-.096.016c-.032.006-.066.006-.096.016L7.59 10.221l-.026.008 4.44-6.158h-.002Zm-6.273 8.7 4.834-1.583.516-.168v9.19L2.41 17.372l3.317-4.6Zm7.197 7.437V11.02l5.35 1.752 3.316 4.598-8.666 2.838Z"/></symbol>
    <symbol id="i-markdown" viewBox="0 0 24 24"><path class="brand-path" d="M22.27 19.385H1.73A1.73 1.73 0 0 1 0 17.655V6.345a1.73 1.73 0 0 1 1.73-1.73h20.54A1.73 1.73 0 0 1 24 6.345v11.308a1.73 1.73 0 0 1-1.73 1.731zM5.769 15.923v-4.5l2.308 2.885 2.307-2.885v4.5h2.308V8.078h-2.308l-2.307 2.885-2.308-2.885H3.46v7.847zM21.232 12h-2.309V8.077h-2.307V12h-2.308l3.461 4.039z"/></symbol>
    <style>
      .bg { fill: #f7f9fe; }
      .eyebrow { font: 700 17px Arial, sans-serif; fill: #f05c32; letter-spacing: 2px; text-anchor: middle; }
      .title { font: 700 39px Arial, sans-serif; fill: #102858; text-anchor: middle; }
      .subtitle { font: 17px Arial, sans-serif; fill: #4f6285; text-anchor: middle; }
      .card { fill: #fff; stroke: #c8d5ed; stroke-width: 2; }
      .card-head { fill: #102858; }
      .card-title { font: 700 16px Arial, sans-serif; fill: #fff; text-anchor: middle; letter-spacing: .6px; }
      .panel { fill: #f5f8ff; stroke: #d7e2f4; stroke-width: 1.5; }
      .panel-green { fill: #eefaf7; stroke: #bce5d9; stroke-width: 1.5; }
      .panel-orange { fill: #fff7f1; stroke: #f5d8c2; stroke-width: 1.5; }
      .panel-title { font: 700 19px Arial, sans-serif; fill: #153364; }
      .panel-title-green { font: 700 19px Arial, sans-serif; fill: #126454; }
      .body { font: 16px Arial, sans-serif; fill: #344563; }
      .small { font: 14px Arial, sans-serif; fill: #586a87; }
      .number { font: 700 30px Arial, sans-serif; fill: #f05c32; }
      .flow { fill: none; stroke: #3559a4; stroke-width: 3; marker-end: url(#arrow); }
      .data { fill: none; stroke: #168270; stroke-width: 3; marker-end: url(#arrow-green); }
      .label { font: 14px Arial, sans-serif; fill: #3559a4; text-anchor: middle; paint-order: stroke; stroke: #f7f9fe; stroke-width: 8; stroke-linejoin: round; }
      .section { font: 700 17px Arial, sans-serif; fill: #102858; letter-spacing: .5px; }
      .footer { font: 14px Arial, sans-serif; fill: #667690; }
      symbol * { fill: none; stroke: currentColor; stroke-width: 1.8; stroke-linecap: round; stroke-linejoin: round; }
      symbol .brand-path { fill: currentColor; stroke: none; }
      symbol .brand-gemini-path { fill: url(#gemini-gradient); stroke: none; }
      .icon-head { color: #fff; }
      .icon-blue { color: #315cac; }
      .icon-green { color: #168270; }
      .icon-orange { color: #ee673a; }
      .icon-purple { color: #7751b7; }
      .brand-telegram { color: #26a5e4; }
      .brand-python { color: #3776ab; }
      .brand-supabase { color: #3fcf8e; }
      .brand-pydantic { color: #e92063; }
      .brand-markdown { color: #111827; }
      .icon-badge { fill: #fff; stroke: #d7e2f4; stroke-width: 1.4; }
    </style>
  </defs>

  <rect class="bg" width="1600" height="960"/>
  <text class="eyebrow" x="800" y="42">SOLUTION ARCHITECTURE</text>
  <text class="title" x="800" y="89">Mentor Bahasa Inggris Virtual</text>
  <text class="subtitle" x="800" y="121">Telegram Bot · Python Backend · Google Gemini · Supabase</text>

  <!-- Alur utama -->
  <path class="flow" d="M 270 399 H 300"/>
  <path class="flow" d="M 570 399 H 600"/>
  <path class="flow" d="M 900 399 H 930"/>
  <path class="flow" d="M 1260 399 H 1290"/>

  <!-- Channel -->
  <rect class="card" x="35" y="190" width="235" height="454" rx="17"/>
  <path class="card-head" d="M 52 190 H 253 Q 270 190 270 207 V 233 H 35 V 207 Q 35 190 52 190 Z"/>
  <circle cx="61.5" cy="211.5" r="16" fill="#fff"/>
  <use href="#i-send" x="49" y="199" width="25" height="25" class="brand-telegram"/>
  <text class="card-title" x="152" y="218">TELEGRAM BOT</text>
  <rect class="panel" x="53" y="263" width="199" height="142" rx="12"/>
  <circle class="icon-badge" cx="78" cy="292" r="16"/>
  <use href="#i-send" x="66" y="280" width="24" height="24" class="brand-telegram"/>
  <text class="panel-title" x="103" y="298">Telegram bot</text>
  <text class="body" x="70" y="332">/start · /report</text>
  <text class="body" x="70" y="361">Teks · voice note</text>
  <rect class="panel-green" x="53" y="430" width="199" height="116" rx="12"/>
  <circle class="icon-badge" cx="78" cy="459" r="16"/>
  <use href="#i-user" x="66" y="447" width="24" height="24" class="icon-green"/>
  <text class="panel-title-green" x="103" y="465">Peserta</text>
  <text class="small" x="70" y="498">Meminta latihan, evaluasi,</text>
  <text class="small" x="70" y="521">tips, atau laporan belajar.</text>

  <!-- Application -->
  <rect class="card" x="300" y="190" width="270" height="454" rx="17"/>
  <path class="card-head" d="M 317 190 H 553 Q 570 190 570 207 V 233 H 300 V 207 Q 300 190 317 190 Z"/>
  <circle cx="325.5" cy="211.5" r="16" fill="#fff"/>
  <use href="#i-python" x="313" y="199" width="25" height="25" class="brand-python"/>
  <text class="card-title" x="435" y="218">PYTHON BACKEND</text>
  <text class="number" x="321" y="287">01</text>
  <use href="#i-handler" x="361" y="262" width="25" height="25" class="icon-blue"/>
  <text class="panel-title" x="395" y="285">Handler input</text>
  <text class="small" x="322" y="316">src/app.py</text>
  <rect class="panel" x="318" y="340" width="234" height="142" rx="12"/>
  <text class="body" x="333" y="370">/start → registrasi</text>
  <text class="body" x="333" y="397">Teks → percakapan AI</text>
  <text class="body" x="333" y="424">Voice → evaluasi speaking</text>
  <text class="body" x="333" y="451">/report → laporan PDF</text>
  <rect class="panel-green" x="318" y="504" width="234" height="102" rx="12"/>
  <use href="#i-clock" x="332" y="515" width="25" height="25" class="icon-green"/>
  <text class="panel-title-green" x="367" y="536">JobQueue</text>
  <text class="body" x="333" y="564">Pengingat harian</text>
  <text class="small" x="333" y="585">08.00 WIB</text>

  <!-- Orchestration -->
  <rect class="card" x="600" y="190" width="300" height="454" rx="17"/>
  <path class="card-head" d="M 617 190 H 883 Q 900 190 900 207 V 233 H 600 V 207 Q 600 190 617 190 Z"/>
  <use href="#i-orbit" x="614" y="199" width="25" height="25" class="icon-head"/>
  <text class="card-title" x="750" y="218">AGENT ORCHESTRATION</text>
  <text class="number" x="620" y="287">02</text>
  <use href="#i-orbit" x="661" y="262" width="25" height="25" class="icon-purple"/>
  <text class="panel-title" x="696" y="285">LeadAgent</text>
  <text class="small" x="621" y="316">src/agents/lead.py</text>
  <rect class="panel" x="618" y="340" width="264" height="168" rx="12"/>
  <text class="body" x="634" y="371">Simpan pesan peserta</text>
  <text class="body" x="634" y="400">Muat riwayat percakapan</text>
  <text class="body" x="634" y="429">Gemini memilih fungsi</text>
  <text class="body" x="634" y="458">Panggil layanan yang sesuai</text>
  <text class="body" x="634" y="487">Simpan balasan &amp; path file</text>
  <text class="small" x="620" y="550">Perintah /report dan voice note</text>
  <text class="small" x="620" y="573">memakai jalur langsung ke layanan.</text>

  <!-- Services -->
  <rect class="card" x="930" y="190" width="330" height="454" rx="17"/>
  <path class="card-head" d="M 947 190 H 1243 Q 1260 190 1260 207 V 233 H 930 V 207 Q 930 190 947 190 Z"/>
  <use href="#i-book" x="944" y="199" width="25" height="25" class="icon-head"/>
  <text class="card-title" x="1095" y="218">AGENT SERVICES</text>
  <text class="number" x="950" y="287">03</text>
  <use href="#i-book" x="991" y="262" width="25" height="25" class="icon-blue"/>
  <text class="panel-title" x="1025" y="285">services.py</text>
  <rect class="panel" x="948" y="330" width="294" height="58" rx="10"/>
  <use href="#i-book" x="964" y="347" width="22" height="22" class="icon-blue"/>
  <text class="body" x="996" y="365">Latihan: R · W · L · S</text>
  <rect class="panel" x="948" y="398" width="294" height="58" rx="10"/>
  <use href="#i-check" x="964" y="415" width="22" height="22" class="icon-green"/>
  <text class="body" x="996" y="433">Evaluasi writing &amp; speaking</text>
  <rect class="panel" x="948" y="466" width="294" height="58" rx="10"/>
  <use href="#i-bulb" x="964" y="483" width="22" height="22" class="icon-orange"/>
  <text class="body" x="996" y="501">Tips belajar &amp; percakapan</text>
  <rect class="panel-orange" x="948" y="534" width="294" height="67" rx="10"/>
  <use href="#i-wave" x="964" y="548" width="22" height="22" class="icon-orange"/>
  <text class="body" x="996" y="564">Audio listening (WAV)</text>
  <use href="#i-doc" x="964" y="572" width="22" height="22" class="icon-purple"/>
  <text class="body" x="996" y="588">Laporan belajar (PDF)</text>

  <!-- External AI -->
  <rect class="card" x="1290" y="190" width="275" height="454" rx="17"/>
  <path class="card-head" d="M 1307 190 H 1548 Q 1565 190 1565 207 V 233 H 1290 V 207 Q 1290 190 1307 190 Z"/>
  <circle cx="1316.5" cy="211.5" r="16" fill="#fff"/>
  <use href="#i-spark" x="1304" y="199" width="25" height="25"/>
  <text class="card-title" x="1427" y="218">GOOGLE GEMINI API</text>
  <rect class="panel-green" x="1308" y="263" width="239" height="147" rx="12"/>
  <circle class="icon-badge" cx="1333" cy="292" r="16"/>
  <use href="#i-spark" x="1321" y="280" width="24" height="24" class="icon-purple"/>
  <text class="panel-title-green" x="1358" y="298">Google Gemini</text>
  <text class="body" x="1325" y="327">Teks &amp; function calling</text>
  <text class="body" x="1325" y="354">Analisis voice note</text>
  <text class="body" x="1325" y="381">TTS dua pembicara</text>
  <rect class="panel" x="1308" y="432" width="239" height="138" rx="12"/>
  <use href="#i-sliders" x="1324" y="443" width="25" height="25" class="icon-blue"/>
  <text class="panel-title" x="1359" y="464">Instruksi &amp; skema</text>
  <text class="body" x="1325" y="496">Prompt agen lokal</text>
  <text class="body" x="1325" y="523">Validasi Pydantic</text>
  <text class="small" x="1308" y="604">Gemini dipanggil oleh LeadAgent</text>
  <text class="small" x="1308" y="625">dan layanan belajar.</text>

  <!-- Supporting systems -->
  <text class="section" x="300" y="694">PENYIMPANAN, FILE, DAN PENGIRIMAN</text>
  <path class="data" d="M 750 644 V 724"/>
  <path class="data" d="M 1095 644 V 724"/>
  <rect class="card" x="300" y="724" width="270" height="165" rx="15"/>
  <use href="#i-output" x="321" y="737" width="26" height="26" class="icon-blue"/>
  <text class="panel-title" x="357" y="759">Pengiriman</text>
  <text class="body" x="322" y="789">Balasan teks ke Telegram</text>
  <text class="body" x="322" y="816">Lampiran audio atau PDF</text>
  <text class="small" x="322" y="850">File dikirim sebagai lampiran bot.</text>
  <rect class="card" x="600" y="724" width="300" height="165" rx="15"/>
  <use href="#i-database" x="620" y="737" width="26" height="26" class="brand-supabase"/>
  <text class="panel-title" x="656" y="759">Supabase</text>
  <text class="body" x="621" y="789">chat_users</text>
  <text class="body" x="621" y="816">chat_histories</text>
  <text class="small" x="621" y="850">Pengguna, pesan, dan path file.</text>
  <rect class="card" x="930" y="724" width="330" height="165" rx="15"/>
  <use href="#i-folder" x="950" y="737" width="26" height="26" class="icon-orange"/>
  <text class="panel-title" x="986" y="759">File lokal</text>
  <text class="body" x="951" y="789">src/temp/ → voice note masuk</text>
  <text class="body" x="951" y="816">src/output/ → WAV dan PDF</text>
  <text class="small" x="951" y="850">Lampiran dikirim oleh handler Telegram.</text>
  <rect x="35" y="910" width="1530" height="38" rx="10" fill="#102858"/>
  <text x="58" y="935" font-family="Arial, sans-serif" font-size="15" font-weight="700" fill="#fff">PLATFORM STACK</text>
  <use href="#i-send" x="225" y="918" width="22" height="22" class="brand-telegram"/>
  <text x="257" y="935" font-family="Arial, sans-serif" font-size="15" font-weight="700" fill="#fff">Telegram Bot API</text>
  <use href="#i-python" x="475" y="918" width="22" height="22" class="brand-python"/>
  <text x="507" y="935" font-family="Arial, sans-serif" font-size="15" font-weight="700" fill="#fff">Python 3.11</text>
  <use href="#i-spark" x="680" y="918" width="22" height="22"/>
  <text x="712" y="935" font-family="Arial, sans-serif" font-size="15" font-weight="700" fill="#fff">Google Gemini</text>
  <use href="#i-database" x="920" y="918" width="22" height="22" class="brand-supabase"/>
  <text x="952" y="935" font-family="Arial, sans-serif" font-size="15" font-weight="700" fill="#fff">Supabase</text>
  <use href="#i-markdown" x="1100" y="918" width="22" height="22" class="icon-head"/>
  <text x="1132" y="935" font-family="Arial, sans-serif" font-size="15" font-weight="700" fill="#fff">Markdown PDF</text>
  <use href="#i-pydantic" x="1325" y="918" width="22" height="22" class="brand-pydantic"/>
  <text x="1357" y="935" font-family="Arial, sans-serif" font-size="15" font-weight="700" fill="#fff">Pydantic</text>
</svg>
